<svg width="24" height="24" viewBox="0 0 24 24" fill="none" xmlns="http://www.w3.org/2000/svg">
<circle cx="12" cy="12" r="9" stroke="#614108" stroke-width="2"/>
<mask id="mask0_4017_21351" style="mask-type:alpha" maskUnits="userSpaceOnUse" x="2" y="2" width="20" height="20">
<circle cx="12" cy="12" r="10" fill="#B16900"/>
</mask>
<g mask="url(#mask0_4017_21351)">
<mask id="path-3-inside-1_4017_21351" fill="white">
<path d="M12.1387 14.5C16.3575 14.5 19.7773 17.6091 19.7773 21.4443C19.7773 25.2796 16.3575 28.3887 12.1387 28.3887C7.91993 28.3886 4.5 25.2796 4.5 21.4443C4.50006 17.6091 7.91997 14.5001 12.1387 14.5Z"/>
</mask>
<path d="M12.1387 14.5V12.5H12.1386L12.1387 14.5ZM19.7773 21.4443H21.7773V21.4443L19.7773 21.4443ZM12.1387 28.3887L12.1386 30.3887H12.1387V28.3887ZM4.5 21.4443L2.5 21.4443V21.4443H4.5ZM12.1387 14.5V16.5C15.4365 16.5 17.7773 18.8887 17.7773 21.4444L19.7773 21.4443L21.7773 21.4443C21.7773 16.3295 17.2785 12.5 12.1387 12.5V14.5ZM19.7773 21.4443H17.7773C17.7773 24 15.4366 26.3887 12.1387 26.3887V28.3887V30.3887C17.2785 30.3887 21.7773 26.5593 21.7773 21.4443H19.7773ZM12.1387 28.3887L12.1387 26.3887C8.84084 26.3886 6.5 23.9999 6.5 21.4443H4.5H2.5C2.5 26.5593 6.99902 30.3885 12.1386 30.3887L12.1387 28.3887ZM4.5 21.4443L6.5 21.4444C6.50004 18.8888 8.84092 16.5001 12.1387 16.5L12.1387 14.5L12.1386 12.5C6.99902 12.5001 2.50009 16.3295 2.5 21.4443L4.5 21.4443Z" fill="#614108" mask="url(#path-3-inside-1_4017_21351)"/>
<path d="M12.043 7.16602C14.0364 7.16602 15.6268 8.75346 15.627 10.6797C15.627 11.5687 15.1541 12.4477 14.4062 13.1348C13.6453 13.8337 12.7516 14.1934 12.1309 14.1934C11.4037 14.1933 10.4643 13.8181 9.69336 13.127C8.93053 12.4431 8.45996 11.5668 8.45996 10.6797C8.46008 8.75356 10.0497 7.16619 12.043 7.16602Z" stroke="#614108" stroke-width="2"/>
</g>
</svg>
