<svg width="24" height="24" viewBox="0 0 24 24" fill="none" xmlns="http://www.w3.org/2000/svg">
<path d="M14.479 19.3745L12 21.5L5 15.0005C3.5 13.5005 2 11.8005 2 9.50053C2.00002 8.38773 2.33759 7.30111 2.96813 6.38419C3.59867 5.46727 4.49252 4.76319 5.53161 4.36493C6.5707 3.96667 7.70616 3.89297 8.78801 4.15357C9.86987 4.41417 10.8472 4.99681 11.591 5.82453C11.6434 5.88054 11.7067 5.9252 11.7771 5.95573C11.8474 5.98626 11.9233 6.00201 12 6.00201C12.0767 6.00201 12.1526 5.98626 12.2229 5.95573C12.2933 5.9252 12.3566 5.88054 12.409 5.82453C13.1504 4.99143 14.128 4.4039 15.2116 4.14013C16.2952 3.87636 17.4335 3.94887 18.4749 4.34801C19.5163 4.74715 20.4114 5.45398 21.0411 6.37443C21.6708 7.29488 22.0053 8.38529 22 9.50053C21.9997 10.0052 21.9259 10.5071 21.781 10.9905M15 15.0005H21M18 12.0005V18.0005" stroke="#BD1E5B" stroke-width="2" stroke-linecap="round" stroke-linejoin="round"/>
</svg>
