<svg width="48" height="48" viewBox="0 0 48 48" fill="none" xmlns="http://www.w3.org/2000/svg">
<mask id="mask0_4052_22493" style="mask-type:alpha" maskUnits="userSpaceOnUse" x="3" y="3" width="42" height="42">
<circle cx="24" cy="24" r="21" fill="#D9D9D9"/>
</mask>
<g mask="url(#mask0_4052_22493)">
<circle cx="24" cy="24" r="21" fill="url(#paint0_linear_4052_22493)"/>
<path d="M19.4346 3.5C29.1803 3.5 37.1953 12.6103 37.1953 24C37.1953 35.3897 29.1803 44.5 19.4346 44.5C9.6889 44.4999 1.67383 35.3897 1.67383 24C1.67383 12.6103 9.6889 3.50008 19.4346 3.5Z" stroke="#FBE1F3"/>
<path d="M24.9131 1.67578C31.3967 1.6758 37.2421 3.19292 41.4492 5.62012C45.6695 8.05491 48.1522 11.3437 48.1523 14.8711C48.1523 18.3986 45.6697 21.6882 41.4492 24.123C37.2421 26.5502 31.3966 28.0674 24.9131 28.0674C18.4296 28.0674 12.5841 26.5501 8.37695 24.123C4.15651 21.6882 1.67383 18.3986 1.67383 14.8711C1.67399 11.3437 4.15664 8.05491 8.37695 5.62012C12.5841 3.19297 18.4295 1.67578 24.9131 1.67578Z" stroke="#FBE1F3"/>
</g>
<defs>
<linearGradient id="paint0_linear_4052_22493" x1="24" y1="3" x2="24" y2="45" gradientUnits="userSpaceOnUse">
<stop stop-color="#6CD960"/>
<stop offset="1" stop-color="#3AA419"/>
</linearGradient>
</defs>
</svg>
