<svg width="40" height="40" viewBox="0 0 40 40" fill="none" xmlns="http://www.w3.org/2000/svg">
<rect width="40" height="40" rx="20" fill="white"/>
<path d="M29.9978 10.2039C24.5789 9.53358 17.7113 9.7936 18.8422 22.6635" stroke="#614108" stroke-width="1.4" stroke-linecap="round" stroke-dasharray="2 2"/>
<path d="M14.1093 19.9246C14.4271 20.3138 15.1206 21.4934 14.8799 22.2948C14.8799 22.2948 14.3042 21.5905 13.062 21.4934C11.8199 21.3963 11.6619 20.625 11.6608 20.0042C11.6587 18.7924 13.5341 19.2198 14.1093 19.9246Z" fill="#A58A54"/>
<path d="M22.709 17.8509C22.3319 18.1647 21.6244 19.3535 21.5647 20.0045C21.5647 20.0045 22.2678 19.2917 23.4933 19.6008C24.7385 19.7648 24.8877 18.5016 24.5771 18.0971C24.0146 17.3647 23.3919 17.2827 22.709 17.8509Z" fill="#A58A54"/>
<path d="M20.9489 22.5176C19.105 21.9931 17.6488 22.0055 17.2646 22.224C15.434 22.7447 15.1933 23.602 15.1866 23.824C8.73281 23.824 9.82443 27.6229 10.5767 28.4132C12.6134 30.5472 19.0281 29.2874 20.9489 29.0689C23.7148 30.6423 26.8016 29.8768 27.8636 29.2686C29.3572 28.4132 29.4003 26.2279 27.8636 25.7908C28.4269 24.4937 28.103 23.1725 26.5664 22.5176C24.1018 21.4716 21.7172 22.2981 20.9489 22.5176Z" fill="#614108"/>
<circle cx="16.375" cy="25.625" r="1.875" fill="white"/>
<circle cx="20.625" cy="25.625" r="1.875" fill="white"/>
<circle cx="20.625" cy="25.625" r="0.625" fill="#614108"/>
<circle cx="16.375" cy="25.625" r="0.625" fill="#614108"/>
</svg>
