<svg preserveAspectRatio="none" width="100%" height="100%" overflow="visible" style="display: block;" viewBox="0 0 75 20" fill="none" xmlns="http://www.w3.org/2000/svg">
<g id="Group 2117917834">
<path id="Vector" d="M5.99132 9.618C6.09831 8.25432 7.16014 8.1356 8.31976 8.03948C9.08824 7.97616 10.3951 7.89023 11.1371 7.9445C11.3557 7.96033 11.603 8.0033 11.6399 8.2351C11.7169 8.72471 11.7054 9.57955 11.7054 10.102C11.7077 11.5923 11.6399 14.8318 10.5585 15.9275C9.8245 16.6704 7.49261 17.0277 6.45494 17.0311C0.61543 17.0492 -1.11134 10.2444 0.667199 5.72599C2.21106 1.79893 5.96256 -0.439936 10.2421 0.740557C10.3031 0.780133 10.3249 1.89504 10.3226 2.07031C10.3169 2.61872 10.2789 3.39101 10.211 3.93264C10.1915 4.08981 10.1351 4.40981 9.93034 4.41659C9.72557 4.42338 9.20213 4.26847 8.92718 4.24472C7.11412 4.08755 5.48859 4.66536 4.69365 6.35694C3.42474 9.05715 4.16216 14.4949 8.24268 13.8074C8.38303 13.7836 8.41639 13.7735 8.48082 13.6434L8.5809 11.253C7.76411 11.1626 6.94501 11.4238 6.12247 11.3842C6.11211 11.3435 6.05114 11.2745 6.05114 11.2542C6.03273 10.7533 5.95566 10.0974 5.99247 9.618H5.99132Z" fill="var(--fill-0, #614108)"/>
<path id="Vector_2" d="M50.098 13.6026L50.1474 19.5209C49.9818 19.5706 49.8196 19.6419 49.6505 19.6826C48.9832 19.842 47.1472 20.0738 46.5087 19.9766C46.4166 19.963 46.2878 19.9234 46.2556 19.8296C46.2498 18.2522 46.2314 16.6737 46.2441 15.0963C46.2671 11.9913 46.3074 8.83539 46.4212 5.73264C46.4316 5.45221 46.3281 4.20953 46.5708 4.12925C46.7434 4.07271 47.2541 4.13603 47.4854 4.12359C50.7951 3.94833 55.6568 3.8149 55.3887 8.27228C55.2093 11.2563 53.2892 13.5992 50.098 13.6026ZM49.9266 6.83059V10.2737C50.8354 10.2997 51.6016 10.1188 51.9064 9.19835C52.0341 8.81277 52.1676 7.71822 51.9639 7.39709C51.6177 6.85207 50.5167 6.739 49.9266 6.83059Z" fill="var(--fill-0, #614108)"/>
<path id="Vector_3" d="M37.699 8.76502C37.6852 8.19174 37.7186 7.61506 37.7013 7.04178C37.6565 5.4757 37.3827 3.81691 37.5276 2.24744C37.5587 1.90709 37.7036 1.3926 38.0591 1.24447C38.4606 1.07825 39.5719 1.06355 40.0275 1.08956C40.2046 1.09974 40.8822 1.14723 40.9489 1.25804C40.9892 2.28249 40.9904 3.31146 40.98 4.33705C40.9547 6.80884 40.9167 9.31117 40.8604 11.7818C40.8258 13.2993 41.1848 14.7783 39.8549 15.874C38.7068 16.8215 36.6372 16.9866 35.2291 16.6384C29.5736 15.2385 32.5153 6.95358 37.7013 8.76502H37.699ZM37.7565 13.8454V11.3906C37.5391 11.1916 37.0398 11.2221 36.7488 11.247C34.6021 11.4324 35.1888 14.6924 37.3677 13.9992C37.5023 13.9563 37.6127 13.8613 37.7565 13.8454Z" fill="var(--fill-0, #614108)"/>
<path id="Vector_4" d="M59.8858 10.5019C59.5338 12.5565 61.3284 12.8233 62.9609 12.7589C63.5085 12.7374 64.1527 12.5915 64.6865 12.5859C64.7636 12.5859 64.8717 12.5802 64.9212 12.6458L64.6876 15.1323C64.6071 15.2702 63.7857 15.3449 63.5936 15.3562C59.467 15.6061 55.612 14.4832 56.2148 9.63575C56.5553 6.89936 58.2016 4.94431 61.0719 4.64128C63.3808 4.39817 66.1291 5.51986 65.4331 8.24608C64.8383 10.5788 61.8415 10.6093 59.8858 10.503V10.5019ZM60.5266 8.23703C61.0063 8.47788 62.2982 8.71081 62.1165 7.83449C62.0417 7.4783 61.524 7.22841 61.1846 7.28382C60.9235 7.32678 60.4495 7.94304 60.5277 8.23703H60.5266Z" fill="var(--fill-0, #614108)"/>
<path id="Vector_5" d="M72.5499 5.43885H74.6482C74.6943 5.43885 74.9312 5.62655 74.9519 5.70457C74.9773 6.37736 75.1395 7.69015 74.677 8.2329C74.6367 8.2804 74.4561 8.42965 74.417 8.42965H72.3762L72.0805 15.9841C72.0253 16.0712 70.5804 16.087 70.3365 16.1063C70.0926 16.1255 69.2298 16.398 69.1562 16.0214L69.0135 8.1481H67.1165C66.9842 8.1481 66.9267 7.62796 66.9163 7.49792C66.8898 7.17792 66.8588 5.70796 66.9278 5.47842C66.9658 5.34952 67.1947 5.23079 67.3201 5.18556C67.4835 5.12676 67.9908 5.04309 68.1518 5.04309H69.2723L69.3966 0.340339C69.438 0.218219 69.6428 0.184297 69.7601 0.185427C70.3434 0.187689 72.13 0.336947 72.6327 0.530303C72.9836 0.665992 72.8685 1.36705 72.8927 1.68479L72.5487 5.43885H72.5499Z" fill="var(--fill-0, #614108)"/>
<path id="Vector_6" d="M27.0723 16.7729C27.0458 16.5422 27.0803 16.307 27.0642 16.0752C26.8537 12.9544 26.9204 9.8867 26.9526 6.76472C26.971 4.90579 26.8962 3.0412 27.0067 1.18678C27.0113 1.16869 27.2724 0.982119 27.3115 0.965158C27.7326 0.78537 29.6941 0.697172 30.183 0.766147C30.9733 0.878091 30.8238 1.31116 30.8042 1.96699C30.6903 5.686 30.4568 9.41857 30.2819 13.1364C30.2601 13.6057 30.2704 16.3455 30.0541 16.5253C29.7297 16.7944 28.2825 16.8328 27.8384 16.8328C27.5773 16.8328 27.3564 16.9369 27.0723 16.7718V16.7729Z" fill="var(--fill-0, #614108)"/>
<g id="Group">
<path id="Vector_7" d="M24.2729 9.92244C24.2729 7.27538 22.0272 5.12923 19.2582 5.12923C16.4891 5.12923 14.2435 7.27538 14.2435 9.92244C14.2435 10.1101 14.2562 10.2945 14.278 10.4754L14.2688 10.4799C14.2688 10.4799 14.4851 13.0241 16.679 15.3308C17.4658 16.0714 17.9536 16.5836 18.7957 17.0099C18.9901 17.0834 19.1673 17.1185 19.28 17.1343H19.4077C19.5205 17.1185 19.6977 17.0834 19.8921 17.0099C20.7342 16.5836 21.2219 16.0714 22.0088 15.3308C24.2027 13.0241 24.2406 10.4708 24.2406 10.4708C24.2625 10.2911 24.274 10.1079 24.274 9.92357L24.2729 9.92244ZM19.2582 12.4191C17.689 12.4191 16.4178 11.1685 16.4178 9.62732C16.4178 8.08612 17.6902 6.83552 19.2582 6.83552C20.8262 6.83552 22.0986 8.08612 22.0986 9.62732C22.0986 11.1685 20.8262 12.4191 19.2582 12.4191Z" fill="var(--fill-0, #614108)"/>
<path id="Vector_8" d="M17.9279 3.69928C18.6117 3.50578 18.9465 2.59924 18.6756 1.67446C18.4048 0.749678 17.6308 0.156851 16.947 0.350344C16.2632 0.543837 15.9284 1.45038 16.1993 2.37516C16.4701 3.29994 17.2441 3.89277 17.9279 3.69928Z" fill="var(--fill-0, #614108)"/>
<path id="Vector_9" d="M15.2185 5.78821C15.7624 5.45476 15.8253 4.58866 15.359 3.85371C14.8927 3.11875 14.0737 2.79326 13.5297 3.12671C12.9858 3.46015 12.9228 4.32625 13.3892 5.06121C13.8555 5.79616 14.6745 6.12165 15.2185 5.78821Z" fill="var(--fill-0, #614108)"/>
<path id="Vector_10" d="M25.2407 5.05989C25.707 4.32493 25.6441 3.45883 25.1001 3.12539C24.5562 2.79195 23.7372 3.11744 23.2708 3.85239C22.8045 4.58734 22.8674 5.45345 23.4114 5.78689C23.9553 6.12033 24.7743 5.79484 25.2407 5.05989Z" fill="var(--fill-0, #614108)"/>
<path id="Vector_11" d="M22.1997 2.37659C22.4705 1.4518 22.1357 0.545262 21.4519 0.351769C20.7681 0.158277 19.9942 0.751103 19.7233 1.67589C19.4524 2.60067 19.7872 3.50721 20.4711 3.7007C21.1549 3.8942 21.9288 3.30137 22.1997 2.37659Z" fill="var(--fill-0, #614108)"/>
</g>
</g>
</svg>
